<svg width="389" height="406" viewBox="0 0 389 406" fill="none" xmlns="http://www.w3.org/2000/svg">
<path d="M382.448 253.95L382.458 253.956C385.398 255.636 386.809 259.161 385.881 262.629C376.906 291.471 361.632 317.488 341.672 339.063L341.663 339.074L341.654 339.084C339.35 341.63 335.652 342.195 332.638 340.476C332.636 340.475 332.635 340.474 332.633 340.473L297.773 320.343L296.247 319.461L294.904 320.603C280.4 332.931 263.802 342.519 245.917 348.883L244.255 349.475V351.239V391.511C244.255 394.93 241.871 397.916 238.528 398.645L238.516 398.648C210.299 404.955 179.894 405.278 150.221 398.648L150.209 398.645C146.866 397.916 144.482 394.93 144.482 391.511V351.239V349.464L142.807 348.879C124.849 342.597 108.26 333.015 93.8446 320.612L92.5 319.456L90.964 320.343L56.0939 340.479L56.0844 340.484C53.1987 342.168 49.4057 341.585 47.067 339.066C27.0987 317.4 11.8213 291.372 2.84752 262.601C1.86318 259.253 3.23861 255.729 6.19757 254.038L6.20739 254.032L41.0774 233.896L42.6073 233.012L42.2854 231.275C38.8214 212.586 38.8214 193.414 42.2854 174.725L42.6073 172.988L41.0774 172.104L6.20741 151.968L6.19756 151.962C3.20049 150.25 1.80393 146.714 2.83985 143.424L2.84248 143.415C11.8158 114.555 27.0951 88.5232 47.0648 66.9365L47.0742 66.9264L47.0835 66.9161C49.3871 64.37 53.0842 63.8049 56.0977 65.5233C56.0997 65.5245 56.1017 65.5256 56.1038 65.5268L90.8799 85.6561L92.407 86.54L93.7514 85.3972C108.255 73.0688 124.853 63.4812 142.738 57.1168L144.4 56.5254V54.7614V14.489C144.4 11.0697 146.784 8.08399 150.127 7.35461L150.139 7.35185C178.357 1.04542 208.762 0.722027 238.434 7.35191L238.446 7.35458C241.79 8.08399 244.174 11.0697 244.174 14.489V54.6796V56.4537L245.848 57.0394C263.806 63.3207 280.395 72.9036 294.811 85.3057L296.155 86.4625L297.691 85.5755L332.561 65.4393L332.571 65.4338C335.458 63.7495 339.254 64.3334 341.592 66.8564C361.559 88.5219 376.835 114.548 385.808 143.318C386.792 146.665 385.417 150.19 382.458 151.88L382.448 151.886L347.578 172.022L346.048 172.906L346.37 174.643C349.834 193.332 349.834 212.504 346.37 231.193L346.048 232.931L347.578 233.814L382.448 253.95ZM126.303 202.918C126.303 240.397 156.808 270.902 194.287 270.902C231.765 270.902 262.27 240.397 262.27 202.918C262.27 165.44 231.765 134.935 194.287 134.935C156.808 134.935 126.303 165.44 126.303 202.918Z" fill="#F1F1F1" stroke="white" stroke-width="5"/>
</svg>
